<?xml version="1.0" encoding="utf-8"?>
<svg viewBox="0 0 1920 1080" width="1920" height="1080" xmlns="http://www.w3.org/2000/svg">
  <path d="M0 733L45.7 724.5C91.3 716 182.7 699 274.2 704.5C365.7 710 457.3 738 548.8 729.3C640.3 720.7 731.7 675.3 823 676.8C914.3 678.3 1005.7 726.7 1097 736.3C1188.3 746 1279.7 717 1371.2 706.2C1462.7 695.3 1554.3 702.7 1645.8 709.3C1737.3 716 1828.7 722 1874.3 725L1920 728L1920 1081L1874.3 1081C1828.7 1081 1737.3 1081 1645.8 1081C1554.3 1081 1462.7 1081 1371.2 1081C1279.7 1081 1188.3 1081 1097 1081C1005.7 1081 914.3 1081 823 1081C731.7 1081 640.3 1081 548.8 1081C457.3 1081 365.7 1081 274.2 1081C182.7 1081 91.3 1081 45.7 1081L0 1081Z" fill="#009473"/>
  <path d="M0 864L45.7 840C91.3 816 182.7 768 274.2 756C365.7 744 457.3 768 548.8 790.3C640.3 812.7 731.7 833.3 823 828.3C914.3 823.3 1005.7 792.7 1097 785.5C1188.3 778.3 1279.7 794.7 1371.2 794.7C1462.7 794.7 1554.3 778.3 1645.8 761.5C1737.3 744.7 1828.7 727.3 1874.3 718.7L1920 710L1920 1081L1874.3 1081C1828.7 1081 1737.3 1081 1645.8 1081C1554.3 1081 1462.7 1081 1371.2 1081C1279.7 1081 1188.3 1081 1097 1081C1005.7 1081 914.3 1081 823 1081C731.7 1081 640.3 1081 548.8 1081C457.3 1081 365.7 1081 274.2 1081C182.7 1081 91.3 1081 45.7 1081L0 1081Z" fill="#007274"/>
  <path d="M0 898L45.7 891C91.3 884 182.7 870 274.2 872.3C365.7 874.7 457.3 893.3 548.8 883.5C640.3 873.7 731.7 835.3 823 815.3C914.3 795.3 1005.7 793.7 1097 797.2C1188.3 800.7 1279.7 809.3 1371.2 812C1462.7 814.7 1554.3 811.3 1645.8 809.8C1737.3 808.3 1828.7 808.7 1874.3 808.8L1920 809L1920 1081L1874.3 1081C1828.7 1081 1737.3 1081 1645.8 1081C1554.3 1081 1462.7 1081 1371.2 1081C1279.7 1081 1188.3 1081 1097 1081C1005.7 1081 914.3 1081 823 1081C731.7 1081 640.3 1081 548.8 1081C457.3 1081 365.7 1081 274.2 1081C182.7 1081 91.3 1081 45.7 1081L0 1081Z" fill="#005060"/>
  <path d="M0 891L45.7 902.8C91.3 914.7 182.7 938.3 274.2 946.2C365.7 954 457.3 946 548.8 934.5C640.3 923 731.7 908 823 896.7C914.3 885.3 1005.7 877.7 1097 875.3C1188.3 873 1279.7 876 1371.2 880.3C1462.7 884.7 1554.3 890.3 1645.8 895.3C1737.3 900.3 1828.7 904.7 1874.3 906.8L1920 909L1920 1081L1874.3 1081C1828.7 1081 1737.3 1081 1645.8 1081C1554.3 1081 1462.7 1081 1371.2 1081C1279.7 1081 1188.3 1081 1097 1081C1005.7 1081 914.3 1081 823 1081C731.7 1081 640.3 1081 548.8 1081C457.3 1081 365.7 1081 274.2 1081C182.7 1081 91.3 1081 45.7 1081L0 1081Z" fill="#022f42"/>
  <path d="M0 989L45.7 981.5C91.3 974 182.7 959 274.2 956.7C365.7 954.3 457.3 964.7 548.8 964.7C640.3 964.7 731.7 954.3 823 962.2C914.3 970 1005.7 996 1097 1005.3C1188.3 1014.7 1279.7 1007.3 1371.2 1002.7C1462.7 998 1554.3 996 1645.8 994.5C1737.3 993 1828.7 992 1874.3 991.5L1920 991L1920 1081L1874.3 1081C1828.7 1081 1737.3 1081 1645.8 1081C1554.3 1081 1462.7 1081 1371.2 1081C1279.7 1081 1188.3 1081 1097 1081C1005.7 1081 914.3 1081 823 1081C731.7 1081 640.3 1081 548.8 1081C457.3 1081 365.7 1081 274.2 1081C182.7 1081 91.3 1081 45.7 1081L0 1081Z" fill="#001122"/>
  <path d="M -0.497 -139.756 L 45.203 -148.256 C 90.803 -156.756 182.203 -173.756 273.703 -168.256 C 365.203 -162.756 456.803 -134.756 548.303 -143.456 C 639.803 -152.056 731.203 -197.456 822.503 -195.956 C 913.803 -194.456 1005.203 -146.056 1096.503 -136.456 C 1187.803 -126.756 1279.203 -155.756 1370.703 -166.556 C 1462.203 -177.456 1553.803 -170.056 1645.303 -163.456 C 1736.803 -156.756 1828.203 -150.756 1873.803 -147.756 L 1919.503 -144.756 L 1919.503 208.244 L 1873.803 208.244 C 1828.203 208.244 1736.803 208.244 1645.303 208.244 C 1553.803 208.244 1462.203 208.244 1370.703 208.244 C 1279.203 208.244 1187.803 208.244 1096.503 208.244 C 1005.203 208.244 913.803 208.244 822.503 208.244 C 731.203 208.244 639.803 208.244 548.303 208.244 C 456.803 208.244 365.203 208.244 273.703 208.244 C 182.203 208.244 90.803 208.244 45.203 208.244 L -0.497 208.244 L -0.497 -139.756 Z" fill="#009473" transform="matrix(-1, 0, 0, -1, 1919.005981, 12.251678)"/>
  <path d="M -0.497 -41.992 L 45.203 -65.992 C 90.803 -89.992 182.203 -137.992 273.703 -149.992 C 365.203 -161.992 456.803 -137.992 548.303 -115.692 C 639.803 -93.292 731.203 -72.692 822.503 -77.692 C 913.803 -82.692 1005.203 -113.292 1096.503 -120.492 C 1187.803 -127.692 1279.203 -111.292 1370.703 -111.292 C 1462.203 -111.292 1553.803 -127.692 1645.303 -144.492 C 1736.803 -161.292 1828.203 -178.692 1873.803 -187.292 L 1919.503 -195.992 L 1919.503 175.008 L 1873.803 175.008 C 1828.203 175.008 1736.803 175.008 1645.303 175.008 C 1553.803 175.008 1462.203 175.008 1370.703 175.008 C 1279.203 175.008 1187.803 175.008 1096.503 175.008 C 1005.203 175.008 913.803 175.008 822.503 175.008 C 731.203 175.008 639.803 175.008 548.303 175.008 C 456.803 175.008 365.203 175.008 273.703 175.008 C 182.203 175.008 90.803 175.008 45.203 175.008 L -0.497 175.008 L -0.497 -41.992 Z" fill="#007274" transform="matrix(-1, 0, 0, -1, 1919.005981, -20.984009)"/>
  <path d="M -0.497 -93.73 L 45.203 -100.73 C 90.803 -107.73 182.203 -121.73 273.703 -119.43 C 365.203 -117.03 456.803 -98.43 548.303 -108.23 C 639.803 -118.03 731.203 -156.43 822.503 -176.43 C 913.803 -196.43 1005.203 -198.03 1096.503 -194.53 C 1187.803 -191.03 1279.203 -182.43 1370.703 -179.73 C 1462.203 -177.03 1553.803 -180.43 1645.303 -181.93 C 1736.803 -183.43 1828.203 -183.03 1873.803 -182.93 L 1919.503 -182.73 L 1919.503 89.27 L 1873.803 89.27 C 1828.203 89.27 1736.803 89.27 1645.303 89.27 C 1553.803 89.27 1462.203 89.27 1370.703 89.27 C 1279.203 89.27 1187.803 89.27 1096.503 89.27 C 1005.203 89.27 913.803 89.27 822.503 89.27 C 731.203 89.27 639.803 89.27 548.303 89.27 C 456.803 89.27 365.203 89.27 273.703 89.27 C 182.203 89.27 90.803 89.27 45.203 89.27 L -0.497 89.27 L -0.497 -93.73 Z" fill="#005060" transform="matrix(-1, 0, 0, -1, 1919.005981, -106.722198)"/>
  <path d="M -0.497 -179.497 L 45.203 -167.697 C 90.803 -155.797 182.203 -132.197 273.703 -124.297 C 365.203 -116.497 456.803 -124.497 548.303 -135.997 C 639.803 -147.497 731.203 -162.497 822.503 -173.797 C 913.803 -185.197 1005.203 -192.797 1096.503 -195.197 C 1187.803 -197.497 1279.203 -194.497 1370.703 -190.197 C 1462.203 -185.797 1553.803 -180.197 1645.303 -175.197 C 1736.803 -170.197 1828.203 -165.797 1873.803 -163.697 L 1919.503 -161.497 L 1919.503 10.503 L 1873.803 10.503 C 1828.203 10.503 1736.803 10.503 1645.303 10.503 C 1553.803 10.503 1462.203 10.503 1370.703 10.503 C 1279.203 10.503 1187.803 10.503 1096.503 10.503 C 1005.203 10.503 913.803 10.503 822.503 10.503 C 731.203 10.503 639.803 10.503 548.303 10.503 C 456.803 10.503 365.203 10.503 273.703 10.503 C 182.203 10.503 90.803 10.503 45.203 10.503 L -0.497 10.503 L -0.497 -179.497 Z" fill="#022f42" transform="matrix(-1, 0, 0, -1, 1919.005981, -185.489487)"/>
</svg>